<?xml version="1.0" standalone="no"?>
<!DOCTYPE svg PUBLIC "-//W3C//DTD SVG 20010904//EN"
 "http://www.w3.org/TR/2001/REC-SVG-20010904/DTD/svg10.dtd">
<svg version="1.0" xmlns="http://www.w3.org/2000/svg"
 width="217.000000pt" height="217.000000pt" viewBox="0 0 217.000000 217.000000"
 preserveAspectRatio="xMidYMid meet">
<metadata>
Created by potrace 1.11, written by Peter Selinger 2001-2013
</metadata>
<g transform="translate(0.000000,217.000000) scale(0.100000,-0.100000)"
fill="#000000" stroke="none">
<path d="M0 1085 l0 -1085 1085 0 1085 0 0 1085 0 1085 -1085 0 -1085 0 0
-1085z m1292 915 c186 -41 332 -122 469 -259 106 -107 158 -180 206 -292 96
-221 108 -455 36 -684 -95 -302 -335 -535 -650 -632 -81 -25 -102 -27 -263
-27 -154 -1 -185 2 -254 22 -645 187 -915 922 -543 1477 60 89 190 214 286
272 91 57 219 107 321 128 101 20 289 18 392 -5z"/>
<path d="M776 983 c-18 -108 -18 -110 1 -148 l20 -38 16 84 c22 109 22 161 -1
189 -18 22 -18 20 -36 -87z"/>
<path d="M680 920 c0 -166 25 -226 151 -365 59 -64 125 -111 251 -179 l86 -47
-4 98 c-7 142 -23 243 -46 284 -11 20 -41 54 -65 74 -25 21 -52 54 -60 73 -11
27 -17 32 -24 21 -16 -25 -9 -79 16 -129 31 -61 31 -71 2 -98 -44 -41 -93 -21
-166 69 -55 69 -91 151 -91 210 0 44 -23 109 -39 109 -7 0 -11 -43 -11 -120z"/>
<path d="M870 924 c-67 -151 -64 -140 -43 -168 10 -14 21 -26 24 -26 16 0 63
128 63 173 0 71 -18 79 -44 21z"/>
</g>
</svg>
